<?xml version="1.0" encoding="utf-8"?>
<!-- Generator: Adobe Illustrator 18.1.1, SVG Export Plug-In . SVG Version: 6.00 Build 0)  -->
<svg version="1.1" id="Layer_1" xmlns="http://www.w3.org/2000/svg" xmlns:xlink="http://www.w3.org/1999/xlink" x="0px" y="0px"
	 viewBox="940 8.2 40 23.7" enable-background="new 940 8.2 40 23.7" xml:space="preserve">
<rect x="-11598.7" y="-7163.6" display="none" width="25727.1" height="15007.4"/>
<path display="none" fill="#FFFFFF" stroke="#000000" stroke-width="7.2233" stroke-miterlimit="10" d="M-2352.9-557.6"/>
<polyline display="none" fill="none" stroke="#FFFFFF" stroke-width="50" stroke-linejoin="round" stroke-miterlimit="10" points="
	18978.8,-2272.6 16245.8,460.4 17612.3,1830 18978.8,460.4 20342.9,1830 21712.6,460.4 "/>
<path display="none" fill="none" stroke="#FFFFFF" stroke-width="50" stroke-linejoin="round" stroke-miterlimit="10" d="
	M227.6-4459.5"/>
<path display="none" fill="none" stroke="#FFFFFF" stroke-width="50" stroke-linejoin="round" stroke-miterlimit="10" d="
	M4132.3-557.6"/>
<path fill="#FFFFFF" d="M968.8,31.8L968.8,31.8c-1.1,0-2.1-0.5-2.9-1.3l-5.3-5.5l-5.4,5.5c-0.8,0.8-1.8,1.3-2.9,1.3l0,0
	c-1.1,0-2.1-0.5-2.9-1.3l-8.2-8.3c-1.6-1.6-1.6-4.2,0-5.8l8.3-8.3l5.7,5.7l-5.4,5.4l2.5,2.5l5.4-5.3c0.8-0.8,1.8-1.1,2.9-1.1l0,0
	c1.1,0,2.1,0.3,2.9,1.1l5.4,5.3l5.4-5.4l5.7,5.7l-8.3,8.5C970.9,31.3,969.9,31.8,968.8,31.8z"/>
</svg>
