<?xml version="1.0" encoding="utf-8"?>
<!-- Generator: Adobe Illustrator 19.0.1, SVG Export Plug-In . SVG Version: 6.00 Build 0)  -->
<svg version="1.1" id="Layer_1" xmlns="http://www.w3.org/2000/svg" xmlns:xlink="http://www.w3.org/1999/xlink" x="0px" y="0px"
	 viewBox="-285 385.3 40 23.7" style="enable-background:new -285 385.3 40 23.7;" xml:space="preserve">
<style type="text/css">
	.st0{display:none;}
	.st1{display:none;fill:#FFFFFF;stroke:#000000;stroke-width:7.2233;stroke-miterlimit:10;}
	.st2{display:none;fill:none;stroke:#FFFFFF;stroke-width:50;stroke-linejoin:round;stroke-miterlimit:10;}
	.st3{fill:#0A72AF;}
</style>
<rect x="-11883.7" y="-6778.3" class="st0" width="25727.1" height="15007.4"/>
<path class="st1" d="M-2637.9-172.3"/>
<polyline class="st2" points="18693.8,-1887.3 15960.8,845.7 17327.3,2215.3 18693.8,845.7 20057.9,2215.3 21427.6,845.7 "/>
<path class="st2" d="M-57.4-4074.2"/>
<path class="st2" d="M3847.3-172.3"/>
<path class="st3" d="M-256.2,409L-256.2,409c-1.1,0-2.1-0.5-2.9-1.3l-5.3-5.5l-5.4,5.5c-0.8,0.8-1.8,1.3-2.9,1.3l0,0
	c-1.1,0-2.1-0.5-2.9-1.3l-8.2-8.3c-1.6-1.6-1.6-4.2,0-5.8l8.3-8.3l5.7,5.7l-5.4,5.4l2.5,2.5l5.4-5.3c0.8-0.8,1.8-1.1,2.9-1.1l0,0
	c1.1,0,2.1,0.3,2.9,1.1l5.4,5.3l5.4-5.4l5.7,5.7l-8.3,8.5C-254.1,408.5-255.1,409-256.2,409z"/>
</svg>
